<?xml version="1.0" encoding="UTF-8"?>
<svg version="1.1" xmlns="http://www.w3.org/2000/svg" width="1024" height="1024">
<path d="M0 0 C5.0101513 0.00229665 10.02029937 -0.00124669 15.03044999 -0.00397992 C24.81350205 -0.00839428 34.59654637 -0.00747982 44.37959871 -0.00456728 C52.35710059 -0.00229258 60.33460033 -0.00200961 68.31210244 -0.0030911 C70.02690676 -0.00332095 70.02690676 -0.00332095 71.77635359 -0.00355544 C74.10037842 -0.00387524 76.42440324 -0.00419945 78.74842807 -0.00452803 C100.48080349 -0.00737106 122.21317467 -0.00411614 143.94554939 0.00127234 C162.46560181 0.00572304 180.98564793 0.00497651 199.50570023 0.00035357 C221.12779835 -0.00504135 242.74989275 -0.00707955 264.37199146 -0.00403416 C266.69488327 -0.0037157 269.01777508 -0.00340133 271.34066689 -0.0030911 C272.48283027 -0.00293682 273.62499365 -0.00278255 274.80176804 -0.0026236 C282.72667298 -0.00177184 290.65157546 -0.00321925 298.57648003 -0.00557065 C326.09549624 -0.01279847 353.61411423 0.01011826 381.1328975 0.13072467 C382.30480965 0.13558869 382.30480965 0.13558869 383.50039679 0.14055097 C392.33369863 0.17763462 401.1660592 0.23658033 409.99880648 0.34820843 C412.233927 0.37465773 414.46912685 0.39529854 416.70436168 0.40903139 C451.76143699 0.6483516 483.14427231 12.17248665 508.4453975 36.94322467 C522.78940158 51.59518456 534.1719827 70.14409612 539.1328975 90.13072467 C539.37945479 91.11380739 539.62601209 92.0968901 539.88004082 93.10976321 C542.31255071 103.88150184 542.55825436 114.24079509 542.52057755 125.25039935 C542.52475761 127.25374733 542.5302388 129.25709294 542.53689736 131.26043421 C542.55128269 136.72914434 542.54712892 142.19770287 542.53973055 147.66642106 C542.53498393 153.57867482 542.547522 159.49089649 542.55774796 165.40313983 C542.57392222 176.30465343 542.57638726 187.20611666 542.57144297 198.10763987 C542.5668757 208.1836221 542.56749751 218.25958652 542.57328331 228.33556819 C542.5740402 229.69013259 542.57479618 231.04469699 542.57555126 232.39926139 C542.57669653 234.44079578 542.57784641 236.48233017 542.5790105 238.52386455 C542.58970722 257.49125977 542.59444941 276.4586491 542.58654034 295.42604613 C542.58609458 296.49730935 542.58609458 296.49730935 542.58563982 297.59021425 C542.5831912 303.38880873 542.58057945 309.18740315 542.57795568 314.98599756 C542.56785807 337.59212948 542.5762028 360.19818709 542.59945023 382.80430865 C542.62556476 408.23921391 542.63835938 433.67407444 542.63126248 459.10899359 C542.63054649 461.82492983 542.6298721 464.54086607 542.62922204 467.25680232 C542.62905223 467.92546749 542.62888242 468.59413266 542.62870746 469.2830604 C542.6264114 479.3451858 542.63439139 489.40726772 542.64751351 499.46938396 C542.66226635 510.92359581 542.66283079 522.37770373 542.6454426 533.83191361 C542.63695513 539.66935374 542.63472781 545.50660847 542.65009415 551.34403872 C542.66401871 556.70034831 542.65907895 562.056315 542.63985492 567.41260514 C542.63611826 569.33780174 542.63894846 571.26302632 542.64946657 573.18819781 C542.83061672 608.92005477 530.15942192 638.74202189 505.1328975 664.13072467 C504.35559281 664.92091998 503.57828812 665.71111529 502.77742875 666.52525592 C482.25447514 686.15441255 452.85080083 697.47411308 424.72274125 698.78697467 C423.86809281 698.90041217 423.01344437 699.01384967 422.1328975 699.13072467 C421.8028975 699.79072467 421.4728975 700.45072467 421.1328975 701.13072467 C421.1328975 700.47072467 421.1328975 699.81072467 421.1328975 699.13072467 C417.1728975 699.46072467 413.2128975 699.79072467 409.1328975 700.13072467 C409.1328975 700.46072467 409.1328975 700.79072467 409.1328975 701.13072467 C401.46623083 701.13072467 393.79956416 701.13072467 386.1328975 701.13072467 C386.1328975 700.80072467 386.1328975 700.47072467 386.1328975 700.13072467 C378.77011034 700.1075405 371.40733106 700.08977859 364.04451478 700.0789125 C360.6255576 700.07369697 357.20662544 700.06662347 353.78768265 700.05528522 C349.85588232 700.04232797 345.92409207 700.03748545 341.9922725 700.03306842 C340.76611222 700.02790713 339.53995194 700.02274585 338.27663529 700.01742816 C337.13575455 700.01735263 335.99487381 700.0172771 334.81942093 700.01719928 C333.8157045 700.01497867 332.81198807 700.01275805 331.77785599 700.01047015 C329.40052034 700.11855705 327.40390799 700.45007471 325.1328975 701.13072467 C325.1328975 700.47072467 325.1328975 699.81072467 325.1328975 699.13072467 C310.6128975 699.46072467 296.0928975 699.79072467 281.1328975 700.13072467 C281.1328975 700.46072467 281.1328975 700.79072467 281.1328975 701.13072467 C271.79956416 701.13072467 262.46623083 701.13072467 253.1328975 701.13072467 C253.1328975 700.47072467 253.1328975 699.81072467 253.1328975 699.13072467 C225.4128975 699.46072467 197.6928975 699.79072467 169.1328975 700.13072467 C169.1328975 700.46072467 169.1328975 700.79072467 169.1328975 701.13072467 C165.1728975 701.13072467 161.2128975 701.13072467 157.1328975 701.13072467 C157.1328975 700.80072467 157.1328975 700.47072467 157.1328975 700.13072467 C121.4928975 700.13072467 85.8528975 700.13072467 49.1328975 700.13072467 C49.1328975 700.46072467 49.1328975 700.79072467 49.1328975 701.13072467 C41.5428975 701.13072467 33.9528975 701.13072467 26.1328975 701.13072467 C26.1328975 700.80072467 26.1328975 700.47072467 26.1328975 700.13072467 C2.0428975 700.13072467 -22.0471025 700.13072467 -46.8671025 700.13072467 C-46.8671025 700.46072467 -46.8671025 700.79072467 -46.8671025 701.13072467 C-51.8171025 701.13072467 -56.7671025 701.13072467 -61.8671025 701.13072467 C-62.1971025 700.47072467 -62.5271025 699.81072467 -62.8671025 699.13072467 C-61.5471025 698.80072467 -60.2271025 698.47072467 -58.8671025 698.13072467 C-59.56190719 698.12814654 -60.25671188 698.12556842 -60.97257125 698.12291217 C-90.63829732 696.99493779 -118.6334642 681.15908008 -138.8671025 660.13072467 C-151.29532001 646.59040607 -167.8671025 624.07831914 -167.8671025 605.13072467 C-168.5271025 604.80072467 -169.1871025 604.47072467 -169.8671025 604.13072467 C-170.26474513 602.14251154 -170.59139111 600.13947909 -170.8671025 598.13072467 C-171.03841524 597.5696752 -171.20972798 597.00862574 -171.38623202 596.43057477 C-172.09981607 593.01772991 -172.00661932 589.61647816 -171.99853027 586.14562297 C-172.00160922 584.92356227 -172.00160922 584.92356227 -172.00475037 583.67681348 C-172.01043366 580.92928831 -172.00896147 578.18181305 -172.0075444 575.43428302 C-172.01012731 573.4513801 -172.01314026 571.46847771 -172.0165478 569.48557603 C-172.02463043 564.02240173 -172.02640808 558.55924056 -172.02714527 553.09606099 C-172.02899374 547.20888454 -172.03654026 541.32171493 -172.04328048 535.43454242 C-172.0575848 521.87959687 -172.06339272 508.32465232 -172.06797243 494.76970079 C-172.07030876 488.06774034 -172.07391156 481.36578074 -172.0776678 474.66382096 C-172.09050666 451.71210778 -172.10122333 428.76039508 -172.10467041 405.80867839 C-172.10489204 404.36757977 -172.10511382 402.92648115 -172.10533576 401.48538253 C-172.1055564 400.04082778 -172.10577688 398.59627302 -172.1059972 397.15171826 C-172.10643975 394.25376987 -172.10688687 391.35582149 -172.10733688 388.45787311 C-172.10744627 387.73934929 -172.10755566 387.02082548 -172.10766837 386.28052822 C-172.11129524 363.00668811 -172.12719958 339.73287922 -172.15052724 316.45905106 C-172.17515708 291.84088351 -172.18884481 267.2227338 -172.19003832 242.60455358 C-172.19020977 239.89859247 -172.19042519 237.19263136 -172.19067276 234.48667026 C-172.19075641 233.48727716 -172.19075641 233.48727716 -172.19084175 232.4676943 C-172.1919188 222.43219468 -172.20126005 212.39672529 -172.21485794 202.36123538 C-172.23028862 190.93270442 -172.23536205 179.50422691 -172.22711983 168.07568751 C-172.22322323 162.24872278 -172.22409435 156.42186558 -172.23817718 150.5949142 C-172.2509761 145.25004793 -172.24966625 139.90536932 -172.23758647 134.56050308 C-172.23563975 132.63702933 -172.23865992 130.71354201 -172.24743083 128.79008727 C-172.31241875 113.5618512 -171.30795681 98.34911616 -166.1171025 83.88072467 C-165.85816207 83.14023883 -165.59922164 82.39975299 -165.33243454 81.63682818 C-159.04923333 64.19371522 -148.29898236 45.68954087 -133.9296025 33.56822467 C-133.24253219 32.98685748 -132.55546188 32.40549029 -131.84757125 31.80650592 C-131.19401657 31.25349811 -130.54046188 30.70049029 -129.8671025 30.13072467 C-129.34761032 29.64990436 -128.82811813 29.16908404 -128.29288375 28.67369342 C-108.17339031 10.27728002 -80.77042228 1.50207255 -53.97765243 0.57631183 C-52.76169649 0.53418445 -51.54574055 0.49205707 -50.29293746 0.4486531 C-33.53260021 -0.07071398 -16.76666178 -0.01141054 0 0 Z M321.05764115 97.86609149 C320.37606949 98.563147 319.69449784 99.26020251 318.9922725 99.97838092 C317.89716355 101.07985713 317.89716355 101.07985713 316.77993119 102.20358539 C314.47369928 104.5264412 312.17816614 106.85954047 309.8828975 109.19322467 C308.32891381 110.76228141 306.77423197 112.33064702 305.218835 113.89830279 C301.74837975 117.39842542 298.28269918 120.90310669 294.83004105 124.42079425 C293.33726546 125.92481692 291.81215786 127.39660316 290.28231156 128.8629024 C288.30702167 130.94700824 287.32540246 132.57084961 286.1328975 135.13072467 C291.13531271 141.00078184 296.39169794 146.54777565 301.83455765 152.00938678 C302.67610901 152.85750934 303.51766037 153.7056319 304.38471329 154.57945514 C307.14423948 157.35854451 309.90764271 160.13374731 312.67196 162.90806842 C313.62873128 163.86889409 314.58547113 164.82975105 315.54218018 165.79063869 C320.03054748 170.29798303 324.52127012 174.8029641 329.01494575 179.30501622 C334.18960502 184.48948496 339.35583984 189.68216663 344.51524425 194.88181561 C348.51690294 198.91360947 352.52618402 202.93772002 356.54128027 206.95613176 C358.93452361 209.35172413 361.3243548 211.7505006 363.70615876 214.15747142 C366.35817079 216.83370804 369.02239706 219.49716731 371.6900264 222.15782428 C372.47456696 222.95517489 373.25910752 223.75252551 374.06742203 224.57403827 C374.79621064 225.29588305 375.52499924 226.01772784 376.27587235 226.76144671 C377.21767318 227.70683008 377.21767318 227.70683008 378.17850029 228.67131209 C380.52439119 230.42306587 382.22816305 230.89248992 385.1328975 231.13072467 C387.50346469 229.66619735 387.50346469 229.66619735 389.66024125 227.36387897 C390.95683671 226.09081141 390.95683671 226.09081141 392.27962601 224.79202533 C393.2005806 223.8557883 394.12153519 222.91955127 395.0703975 221.95494342 C396.03681558 220.99002873 397.00419787 220.02607886 397.97249711 219.06305194 C400.00284726 217.03703903 402.02219742 215.0008193 404.03426468 212.9566524 C406.59451665 210.35691095 409.17820319 207.78211644 411.77063859 205.21451354 C413.77562458 203.22383523 415.76812854 201.22101727 417.75719559 199.21444392 C419.16049492 197.80255952 420.57322319 196.40006652 421.98616898 194.99783587 C429.14722295 187.67947266 434.71682624 180.17476894 435.26180375 169.63853717 C434.85413349 161.70749761 431.77449195 154.75660437 426.1328975 149.13072467 C425.4728975 149.13072467 424.8128975 149.13072467 424.1328975 149.13072467 C423.8853975 148.55838092 423.6378975 147.98603717 423.3828975 147.39634967 C421.9397355 144.78061856 420.25073527 142.98299011 418.1328975 140.88072467 C417.4316475 140.17431842 416.7303975 139.46791217 416.0078975 138.74009967 C414.29178982 136.91362068 414.29178982 136.91362068 412.1328975 137.13072467 C411.8235225 136.29541217 411.8235225 136.29541217 411.5078975 135.44322467 C409.96859321 132.85439474 408.08755737 131.37790667 405.750085 129.52134967 C404.13816333 128.13525278 402.85484841 126.71007017 401.5078975 125.06822467 C398.51673554 121.47246614 395.29528726 118.14079753 392.0078975 114.81822467 C391.49275589 114.29027301 390.97761429 113.76232135 390.44686234 113.21837115 C387.83288179 110.59720237 385.50896203 108.64332633 382.1328975 107.13072467 C381.44803024 105.80664798 380.78419547 104.47163226 380.1328975 103.13072467 C376.68993172 99.29960724 376.68993172 99.29960724 372.1328975 97.13072467 C371.8441475 96.53259967 371.5553975 95.93447467 371.2578975 95.31822467 C368.35324536 89.67028996 361.89303563 87.06605771 356.1328975 85.13072467 C341.51055664 81.89425114 331.19663148 87.7236406 321.05764115 97.86609149 Z M254.1328975 165.13072467 C254.1328975 165.79072467 254.1328975 166.45072467 254.1328975 167.13072467 C252.6478975 167.62572467 252.6478975 167.62572467 251.1328975 168.13072467 C251.1328975 168.79072467 251.1328975 169.45072467 251.1328975 170.13072467 C250.26649053 170.51017731 250.26649053 170.51017731 249.3825804 170.89729565 C246.86068176 172.27997183 245.17401914 173.83538387 243.13797104 175.8655889 C242.34870964 176.64778472 241.55944824 177.42998053 240.74626982 178.23587924 C239.8851863 179.09937785 239.02410278 179.96287645 238.13692582 180.85254169 C237.2175311 181.76669972 236.29813638 182.68085776 235.35088122 183.62271756 C232.7977518 186.16165694 230.25092138 188.7068343 227.70509851 191.25309718 C224.95877239 193.99777595 222.20675002 196.73673327 219.45551407 199.47648883 C213.43988647 205.46925993 207.43173847 211.46949298 201.42500222 217.47117424 C197.67393579 221.21898412 193.92123907 224.96515858 190.16819108 228.71098399 C179.77634032 239.08326724 169.38607417 249.45713031 159.00254929 259.83774924 C158.00570059 260.83431659 158.00570059 260.83431659 156.98871353 261.85101661 C155.64148946 263.19787443 154.29426667 264.54473352 152.94704515 265.89159388 C152.27828365 266.56017257 151.60952215 267.22875126 150.92049515 267.9175899 C150.25091808 268.58698643 149.581341 269.25638296 148.89147371 269.94606423 C138.04343139 280.79056548 127.18370049 291.62327883 116.31874985 302.45083732 C105.16274015 313.5687601 94.01611893 324.69602209 82.87898505 335.83285397 C76.626219 342.0850355 70.36956034 348.33320598 64.10263932 354.57120204 C58.76581766 359.88350465 53.43769927 365.2043489 48.12064719 370.53644169 C45.40847554 373.25578022 42.69245689 375.97095265 39.96535408 378.6753242 C37.00615813 381.61009016 34.06678101 384.56394956 31.12886918 387.52002215 C30.26778565 388.36790571 29.40670213 389.21578926 28.51952517 390.08936626 C21.49468946 397.21378667 18.5224516 404.07161476 15.85555375 413.63072467 C15.65178116 414.35230258 15.44800858 415.07388049 15.23806107 415.8173244 C14.78940994 417.40865143 14.34380093 419.00083856 13.90087235 420.59376788 C12.63236074 425.1554601 11.34136648 429.71082513 10.0547725 434.26744342 C9.76411408 435.29939334 9.47345566 436.33134326 9.17398942 437.39456439 C6.39053077 447.26149381 3.55358078 457.1127211 0.7110225 466.96275592 C0.23314212 468.61939956 -0.24472752 470.27604629 -0.72258651 471.9326961 C-2.64728555 478.60428561 -4.57258433 485.27570097 -6.50037277 491.9463985 C-7.65157179 495.93028461 -8.80077698 499.91474111 -9.94863784 503.89959025 C-10.37756704 505.38722549 -10.80723648 506.87464752 -11.23768508 508.36184382 C-11.8324134 510.41683963 -12.42462994 512.47254375 -13.01627243 514.52842975 C-13.3509201 515.68748324 -13.68556777 516.84653674 -14.03035629 518.04071307 C-16.54774137 526.65105966 -16.54774137 526.65105966 -14.8046025 535.06822467 C-10.7530359 537.29005152 -6.11442088 536.33713411 -1.84268844 535.09947467 C-0.34228642 534.62019902 1.15463152 534.12992513 2.6485225 533.63072467 C3.47620636 533.36363696 4.30389023 533.09654925 5.15665543 532.82136798 C7.90179144 531.9336145 10.64218974 531.03204689 13.3828975 530.13072467 C16.33769248 529.17130474 19.29366413 528.21557246 22.24973404 527.26008868 C24.32557034 526.58895913 26.4010336 525.91667479 28.47614396 525.24330401 C37.10383421 522.44768884 45.75569948 519.73444784 54.41777909 517.04751849 C59.85225722 515.36130236 65.28300899 513.66504824 70.70516312 511.93956256 C71.76524582 511.60228641 72.82532853 511.26501025 73.91753495 510.91751361 C76.01783061 510.24920649 78.11803139 509.5806011 80.21813309 508.91168475 C85.76048489 507.15769589 91.31460122 505.48987654 96.91567338 503.93385577 C118.36678772 497.94866382 133.75050875 489.60526667 147.1328975 471.13072467 C147.1328975 470.47072467 147.1328975 469.81072467 147.1328975 469.13072467 C147.67928376 468.92199222 148.22567002 468.71325976 148.78861344 468.49820209 C152.00013425 466.62484456 154.20453466 464.00492555 156.64144242 461.251086 C162.07813383 455.23642323 167.6917023 449.44921851 173.44749749 443.74095988 C175.05336298 442.14822683 176.65575882 440.55206702 178.25745499 438.95514178 C181.65056037 435.57327414 185.04766452 432.19544212 188.4453975 428.81822467 C192.40847715 424.87893889 196.36979461 420.93791115 200.32691872 416.99264216 C201.89064546 415.43530098 203.45739336 413.88104662 205.02433121 412.32693744 C205.99597265 411.35893302 206.96747145 410.39078538 207.9388057 409.42247272 C208.77531159 408.59120364 209.61181748 407.75993457 210.47367203 406.90347552 C212.56447116 404.72341778 214.55450153 402.51823749 216.52941239 400.23619342 C219.87096145 396.38704923 223.37334584 392.74853816 226.98275101 389.15147662 C227.9500615 388.18153766 227.9500615 388.18153766 228.93691361 387.19200397 C231.04272374 385.08183719 233.15211747 382.97529688 235.26180375 380.86900592 C236.73972777 379.39040724 238.21750341 377.91166023 239.6951381 376.4327724 C242.78076115 373.34568089 245.86817073 370.26039045 248.95687211 367.17637897 C252.90658564 363.23237223 256.85177882 359.28387908 260.79564869 355.33402991 C263.84193881 352.28411968 266.89061478 349.2366033 269.94000924 346.18979716 C271.39553419 344.73493694 272.85032317 343.27934001 274.30434716 341.82297969 C276.33796148 339.78681389 278.37477444 337.75390115 280.41243851 335.72178912 C281.00636902 335.12583438 281.60029953 334.52987964 282.21222794 333.91586566 C284.89785364 331.24371791 287.59541008 328.71420241 290.55292618 326.34378314 C291.40431672 325.61347384 292.25570725 324.88316455 293.1328975 324.13072467 C293.1328975 323.47072467 293.1328975 322.81072467 293.1328975 322.13072467 C293.7722725 321.86259967 294.4116475 321.59447467 295.0703975 321.31822467 C297.46421436 320.24404715 297.46421436 320.24404715 298.1328975 317.13072467 C299.45697418 316.44585742 300.7919899 315.78202264 302.1328975 315.13072467 C304.38354852 313.21405546 304.38354852 313.21405546 306.1328975 311.13072467 C306.1328975 310.47072467 306.1328975 309.81072467 306.1328975 309.13072467 C306.71420426 308.87506228 307.29551102 308.6193999 307.89443314 308.35599017 C310.35762015 307.00771851 311.97614195 305.5215687 313.94832718 303.52647662 C315.05032456 302.41941112 315.05032456 302.41941112 316.17458451 301.28998065 C316.96004654 300.49105899 317.74550858 299.69213733 318.5547725 298.86900592 C319.78299729 297.63297877 319.78299729 297.63297877 321.0360347 296.37198138 C323.65644286 293.73375993 326.27009437 291.08897643 328.8828975 288.44322467 C331.48222848 285.81615398 334.08303938 283.19059418 336.68691361 280.5680263 C338.30592262 278.93689742 339.92225267 277.30310352 341.53542435 275.66620135 C345.70818083 271.45697642 349.95579151 267.44596674 354.5023433 263.64114642 C356.3682631 262.03057996 356.3682631 262.03057996 358.1328975 259.13072467 C357.87498865 254.92364573 356.43721212 252.93246378 353.51564896 249.99881244 C352.73898377 249.20942279 351.96231858 248.42003314 351.16211808 247.60672259 C350.30394989 246.75508029 349.44578171 245.90343799 348.56160843 245.02598834 C347.66241181 244.11817615 346.76321518 243.21036395 345.83677018 242.2750423 C343.37285041 239.78863026 340.89637578 237.31509283 338.4167558 234.84434938 C336.3477241 232.78042835 334.28492464 230.71033512 332.22209585 228.64021736 C327.35649413 223.757618 322.48068978 218.88537782 317.59822953 214.01964068 C312.56026838 208.99861251 307.53892187 203.96140329 302.52559745 198.91578573 C298.22038528 194.58389493 293.90555049 190.26176185 289.58273447 185.94743782 C287.00107747 183.37071364 284.42313684 180.79053418 281.85420334 178.20111918 C278.99075349 175.31593608 276.10747167 172.4514101 273.22176468 169.58848834 C271.9466578 168.29584315 271.9466578 168.29584315 270.64579117 166.97708392 C269.85784668 166.20179339 269.0699022 165.42650287 268.2580806 164.62771869 C267.23822131 163.60873886 267.23822131 163.60873886 266.19775879 162.56917357 C261.38208121 159.21441742 257.95941312 161.41353806 254.1328975 165.13072467 Z M-24.0546025 571.19322467 C-27.49437842 575.2188505 -28.02364128 578.95573688 -27.8671025 584.13072467 C-27.8464775 585.32697467 -27.8258525 586.52322467 -27.8046025 587.75572467 C-26.57257428 592.19102628 -24.38995672 595.176827 -20.8671025 598.13072467 C-10.7015187 602.96919942 2.74559202 601.27610606 13.76024735 601.25770831 C15.28740626 601.25886335 16.8145649 601.26045343 18.34172297 601.26243556 C22.49815645 601.26657581 26.65456671 601.26456245 30.81100023 601.26144934 C35.30848843 601.25917386 39.80597281 601.26268536 44.30346024 601.26542926 C53.0954101 601.26986196 61.88735139 601.26892195 70.67930157 601.26601662 C77.8223362 601.26375418 84.96536844 601.2634537 92.10840333 601.26454043 C93.12668451 601.26469367 94.1449657 601.2648469 95.19410389 601.26500478 C97.26287549 601.26532451 99.33164709 601.26564872 101.40041868 601.26597737 C120.76818226 601.26882446 140.13594108 601.26555648 159.50370388 601.260177 C176.12701167 601.25570292 192.75031248 601.25649136 209.37362015 601.26109576 C228.68968151 601.26644353 248.00573872 601.26855693 267.32180071 601.2654835 C269.37971691 601.26516495 271.43763312 601.26485058 273.49554932 601.26454043 C275.01429917 601.26430902 275.01429917 601.26430902 276.56373084 601.26407293 C283.70441868 601.26320889 290.84510389 601.2646681 297.98579133 601.26701999 C306.67805088 601.26982012 315.3703014 601.26907491 324.06255992 601.26373924 C328.49849151 601.26110617 332.93440802 601.26009064 337.37033951 601.2633884 C341.42736141 601.26635898 345.48435418 601.26474575 349.54137342 601.25941084 C351.01207936 601.25829002 352.48278774 601.25887047 353.95349212 601.26128663 C355.94653313 601.26431087 357.93958099 601.26062237 359.93262017 601.25656581 C361.04140892 601.25640346 362.15019768 601.2562411 363.29258609 601.25607383 C366.04281626 601.2295057 366.04281626 601.2295057 368.28603983 600.5916096 C370.1328975 600.13072467 370.1328975 600.13072467 373.8828975 600.63072467 C383.58207396 601.8370899 394.95339906 601.9507524 403.1328975 596.13072467 C407.21287854 591.63228403 408.38487272 587.08741901 408.1328975 581.13072467 C407.24884945 576.69483757 405.88389527 573.86294749 402.6328975 570.69322467 C400.15210171 569.00677022 400.15210171 569.00677022 397.1328975 568.13072467 C396.8028975 567.80072467 396.4728975 567.47072467 396.1328975 567.13072467 C387.57677951 565.58002319 378.71455211 565.98752795 370.05333817 565.9970119 C368.42808805 565.99514138 366.80283838 565.99283972 365.17758942 565.99014658 C360.73112503 565.98405213 356.2846795 565.98415938 351.83821189 565.98534095 C347.03511101 565.98554555 342.23201609 565.98002062 337.428918 565.97528338 C328.02680292 565.96698962 318.62469411 565.96422914 309.22257568 565.96367101 C301.57894176 565.96319532 293.93530991 565.96113795 286.29167664 565.95797038 C264.60855884 565.94916793 242.92544599 565.94455046 221.24232639 565.94530085 C220.07425685 565.94534081 218.90618731 565.94538077 217.70272171 565.94542193 C216.53322224 565.94546281 215.36372276 565.9455037 214.1587839 565.94554581 C195.2011958 565.94595236 176.24362756 565.93637972 157.28604521 565.92228357 C137.80877553 565.90791551 118.33151553 565.90101359 98.85424042 565.90187734 C87.9238848 565.90220912 76.99355 565.89947021 66.06319916 565.88869929 C56.7584183 565.87958875 47.45366771 565.87742368 38.14888431 565.88420872 C33.40413267 565.88747086 28.65943909 565.88754155 23.914693 565.87885547 C19.56593473 565.87097632 15.21728043 565.87243632 10.86852466 565.8811396 C9.30065227 565.88267145 7.73277207 565.88087038 6.1649089 565.87527952 C-9.89691939 565.15696084 -9.89691939 565.15696084 -24.0546025 571.19322467 Z " fill="#4B97E0" transform="translate(325.86710250377655,162.8692753314972)"/>
<path d="M0 0 C7.25520188 0.84087035 14.52123909 0.64391606 21.8125 0.5625 C21.8125 0.8925 21.8125 1.2225 21.8125 1.5625 C17.05403623 2.32899521 12.49633522 2.68834683 7.67856884 2.69113445 C6.9923649 2.69288749 6.30616096 2.69464053 5.59916297 2.69644669 C3.30698885 2.70108704 1.01487872 2.6986463 -1.27729797 2.69621277 C-2.94008425 2.6980817 -4.60287008 2.70038274 -6.26565522 2.70307809 C-10.82941625 2.70919175 -15.39315894 2.70906302 -19.95692313 2.70788372 C-24.88054094 2.70767961 -29.80415287 2.7131992 -34.72776794 2.71794128 C-44.36957847 2.72624473 -54.01138287 2.72899594 -63.65319667 2.72955366 C-71.48577547 2.73002872 -79.31835225 2.73208297 -87.1509304 2.73525429 C-109.34512947 2.74405803 -131.53932371 2.7486738 -153.73352454 2.74792381 C-154.92981349 2.74788386 -156.12610244 2.7478439 -157.35864258 2.74780273 C-158.55638658 2.74776185 -159.75413059 2.74772097 -160.98816987 2.74767885 C-180.42476055 2.74727189 -199.8613319 2.75685483 -219.29791699 2.7709411 C-239.2428685 2.78528218 -259.18781057 2.79221262 -279.13276738 2.79134732 C-290.33559847 2.79101469 -301.53840927 2.79379098 -312.74123573 2.80452538 C-322.27328141 2.81360031 -331.80529759 2.81583033 -341.3373457 2.80901595 C-346.20437819 2.80573619 -351.07135399 2.80574627 -355.9383812 2.8143692 C-360.38727496 2.82217071 -364.83606647 2.82086864 -369.28495755 2.81208507 C-370.90052063 2.81053601 -372.51609111 2.81241839 -374.13164548 2.81794515 C-376.31548182 2.82492549 -378.49895139 2.81977539 -380.68277454 2.81138897 C-381.89940118 2.81160634 -383.11602781 2.81182371 -384.36952192 2.81204766 C-387.1875 2.5625 -387.1875 2.5625 -389.1875 0.5625 C-388.38033875 0.56287972 -387.5731775 0.56325944 -386.74155682 0.56365067 C-338.94339534 0.58601009 -291.1452344 0.60317711 -243.34706874 0.61356533 C-237.61280819 0.61481609 -231.87854765 0.61611041 -226.14428711 0.61743164 C-225.0026592 0.61769395 -223.86103129 0.61795626 -222.68480859 0.61822652 C-204.17963493 0.62258239 -185.67446436 0.63046948 -167.16929253 0.6396528 C-148.19298 0.64899165 -129.21666909 0.6545561 -110.24035436 0.65658849 C-98.52316276 0.65796324 -86.8059799 0.66231122 -75.08879099 0.67041647 C-67.06290764 0.67568677 -59.03702884 0.67730364 -51.01114389 0.67600138 C-46.37493118 0.67535845 -41.73873381 0.67637049 -37.1025238 0.68170547 C-32.86303978 0.68654854 -28.62358148 0.68683262 -24.3840963 0.68339889 C-22.84569458 0.6829741 -21.30729129 0.6842622 -19.76889267 0.68738318 C-17.68672281 0.69136366 -15.60464729 0.68925298 -13.52247906 0.68554783 C-11.7835498 0.68611741 -11.7835498 0.68611741 -10.00949067 0.6866985 C-6.33933576 0.52517148 -3.70272593 -0.5162148 0 0 Z " fill="#73ACE9" transform="translate(699.1875,762.4375)"/>
<path d="M0 0 C161.7 0.33 323.4 0.66 490 1 C489.34 1.33 488.68 1.66 488 2 C487.67 2.66 487.34 3.32 487 4 C487 3.34 487 2.68 487 2 C481.06 2.495 481.06 2.495 475 3 C475 3.33 475 3.66 475 4 C467.33333333 4 459.66666667 4 452 4 C452 3.67 452 3.34 452 3 C444.63721284 2.97681583 437.27443357 2.95905392 429.91161728 2.94818783 C426.49266011 2.9429723 423.07372794 2.9358988 419.65478516 2.92456055 C415.72298483 2.9116033 411.79119458 2.90676078 407.859375 2.90234375 C406.63321472 2.89718246 405.40705444 2.89202118 404.14373779 2.88670349 C403.00285706 2.88662796 401.86197632 2.88655243 400.68652344 2.88647461 C399.68280701 2.884254 398.67909058 2.88203339 397.6449585 2.87974548 C395.26762285 2.98783238 393.2710105 3.31935005 391 4 C391 3.34 391 2.68 391 2 C376.48 2.33 361.96 2.66 347 3 C347 3.33 347 3.66 347 4 C337.66666667 4 328.33333333 4 319 4 C319 3.34 319 2.68 319 2 C277.42 2.495 277.42 2.495 235 3 C235 3.33 235 3.66 235 4 C231.04 4 227.08 4 223 4 C223 3.67 223 3.34 223 3 C187.36 3 151.72 3 115 3 C115 3.33 115 3.66 115 4 C107.41 4 99.82 4 92 4 C92 3.67 92 3.34 92 3 C67.91 3 43.82 3 19 3 C19 3.33 19 3.66 19 4 C14.05 4 9.1 4 4 4 C3.67 3.34 3.34 2.68 3 2 C4.32 1.67 5.64 1.34 7 1 C4.69 1 2.38 1 0 1 C0 0.67 0 0.34 0 0 Z " fill="#85B5EB" transform="translate(260,860)"/>
<path d="M0 0 C43.56 0.33 87.12 0.66 132 1 C132 1.33 132 1.66 132 2 C123.585 2.495 123.585 2.495 115 3 C115 3.33 115 3.66 115 4 C107.41 4 99.82 4 92 4 C92 3.67 92 3.34 92 3 C67.91 3 43.82 3 19 3 C19 3.33 19 3.66 19 4 C14.05 4 9.1 4 4 4 C3.67 3.34 3.34 2.68 3 2 C4.32 1.67 5.64 1.34 7 1 C4.69 1 2.38 1 0 1 C0 0.67 0 0.34 0 0 Z " fill="#84B4EB" transform="translate(260,860)"/>
<path d="M0 0 C-2.28248637 2.28248637 -3.01053607 2.35320234 -6.10546875 2.78125 C-6.92466797 2.90113281 -7.74386719 3.02101562 -8.58789062 3.14453125 C-9.44576172 3.26183594 -10.30363281 3.37914062 -11.1875 3.5 C-18.14634515 4.44791926 -18.14634515 4.44791926 -24.92578125 6.21875 C-25.94027344 6.4765625 -26.95476562 6.734375 -28 7 C-28.99 6.34 -29.98 5.68 -31 5 C-20.45266803 1.68546246 -11.15431047 -0.8868268 0 0 Z " fill="#5095DD" transform="translate(266,165)"/>
<path d="M0 0 C0.66 0.33 1.32 0.66 2 1 C-1.96391235 8.09331684 -7.34220283 14.29218527 -14 19 C-14.99 19 -15.98 19 -17 19 C-16.34 17.68 -15.68 16.36 -15 15 C-14.34 15 -13.68 15 -13 15 C-13 14.34 -13 13.68 -13 13 C-11.42578125 11.484375 -11.42578125 11.484375 -9.3125 9.75 C-5.76035397 6.74045531 -2.86029631 3.66475465 0 0 Z " fill="#589CE0" transform="translate(632,472)"/>
<path d="M0 0 C0.33 1.32 0.66 2.64 1 4 C-0.8125 6.25 -0.8125 6.25 -3 8 C-3.66 8 -4.32 8 -5 8 C-5.20625 8.556875 -5.4125 9.11375 -5.625 9.6875 C-7.55000774 12.92501302 -10.03850902 14.68231141 -13 17 C-13.66 16.34 -14.32 15.68 -15 15 C-10.05 10.05 -5.1 5.1 0 0 Z " fill="#579BE1" transform="translate(652,453)"/>
<path d="M0 0 C9.57 0.33 19.14 0.66 29 1 C29 1.33 29 1.66 29 2 C25.7 2.33 22.4 2.66 19 3 C19 3.33 19 3.66 19 4 C14.05 4 9.1 4 4 4 C3.67 3.34 3.34 2.68 3 2 C4.32 1.67 5.64 1.34 7 1 C4.69 1 2.38 1 0 1 C0 0.67 0 0.34 0 0 Z " fill="#77AAE2" transform="translate(260,860)"/>
<path d="M0 0 C0 0.33 0 0.66 0 1 C-6.46794133 2.51233701 -12.35590042 3.21432579 -19 3 C-18.360625 2.690625 -17.72125 2.38125 -17.0625 2.0625 C-15.06389179 1.1654837 -15.06389179 1.1654837 -14 0 C-9.04345232 -0.99130954 -4.96246529 -0.91147322 0 0 Z " fill="#65A3E1" transform="translate(771,858)"/>
<path d="M0 0 C1.63129887 4.06285757 0.29968777 7.20102184 -0.9375 11.25 C-1.31777344 12.51328125 -1.69804687 13.7765625 -2.08984375 15.078125 C-2.39019531 16.04234375 -2.69054687 17.0065625 -3 18 C-3.33 18 -3.66 18 -4 18 C-4.20647863 12.21859826 -3.71903016 7.53909717 -2 2 C-1.34 1.34 -0.68 0.68 0 0 Z " fill="#5D9EE2" transform="translate(315,666)"/>
<path d="M0 0 C-0.66 0 -1.32 0 -2 0 C-2 0.66 -2 1.32 -2 2 C-3.57701982 2.55978184 -5.16199242 3.09719401 -6.75 3.625 C-7.63171875 3.92664063 -8.5134375 4.22828125 -9.421875 4.5390625 C-12.41017471 5.07333427 -13.49923002 4.62433191 -16 3 C-13.89936424 2.30178583 -11.79434263 1.61675528 -9.6875 0.9375 C-8.51574219 0.55464844 -7.34398437 0.17179688 -6.13671875 -0.22265625 C-3 -1 -3 -1 0 0 Z " fill="#62A2E3" transform="translate(342,693)"/>
<path d="M0 0 C4.8274799 1.41292095 8.7162359 3.42974154 13 6 C10.60042386 6.84119973 9.35077442 7.11193544 6.89453125 6.328125 C6.20746094 5.97234375 5.52039063 5.6165625 4.8125 5.25 C4.11769531 4.90453125 3.42289063 4.5590625 2.70703125 4.203125 C1 3 1 3 0 0 Z " fill="#599ADD" transform="translate(797,175)"/>
<path d="M0 0 C9.24 0 18.48 0 28 0 C28 0.33 28 0.66 28 1 C18.76 1 9.52 1 0 1 C0 0.67 0 0.34 0 0 Z " fill="#5F99D9" transform="translate(547,863)"/>
<path d="M0 0 C4.36109605 0.50710419 7.45075299 1.36341651 11 4 C11.33 4.99 11.66 5.98 12 7 C7.39104317 5.68315519 3.85859765 3.84801255 0 1 C0 0.67 0 0.34 0 0 Z " fill="#5E9DDF" transform="translate(210,841)"/>
<path d="M0 0 C0.33 1.32 0.66 2.64 1 4 C-1.97 6.475 -1.97 6.475 -5 9 C-5.66 8.34 -6.32 7.68 -7 7 C-4.69 4.69 -2.38 2.38 0 0 Z " fill="#5A9EE1" transform="translate(524,581)"/>
<path d="M0 0 C8.58 0 17.16 0 26 0 C26 0.33 26 0.66 26 1 C17.42 1 8.84 1 0 1 C0 0.67 0 0.34 0 0 Z " fill="#5F99DA" transform="translate(520,863)"/>
<path d="M0 0 C-0.66 0 -1.32 0 -2 0 C-2 0.66 -2 1.32 -2 2 C-5.05141522 3.01713841 -7.80079639 3.66674962 -11 4 C-11.99 3.34 -12.98 2.68 -14 2 C-12.42085985 1.46658816 -10.83645613 0.94874237 -9.25 0.4375 C-8.36828125 0.14746094 -7.4865625 -0.14257812 -6.578125 -0.44140625 C-3.92165684 -1.01697435 -2.52968894 -0.89248371 0 0 Z " fill="#64A2E0" transform="translate(249,168)"/>
<path d="M0 0 C2.97069541 2.54631035 4.4775751 5.42230149 6 9 C5.67 9.66 5.34 10.32 5 11 C2.65808437 8.8709858 1.16445046 6.95591271 0 4 C0 2.68 0 1.36 0 0 Z " fill="#629FDE" transform="translate(852,225)"/>
<path d="M0 0 C7.59 0 15.18 0 23 0 C23 0.33 23 0.66 23 1 C15.41 1 7.82 1 0 1 C0 0.67 0 0.34 0 0 Z " fill="#5F99D9" transform="translate(688,863)"/>
<path d="M0 0 C7.59 0 15.18 0 23 0 C23 0.33 23 0.66 23 1 C15.41 1 7.82 1 0 1 C0 0.67 0 0.34 0 0 Z " fill="#619ADA" transform="translate(448,863)"/>
<path d="M0 0 C-1 2 -1 2 -4.375 3.25 C-5.57125 3.4975 -6.7675 3.745 -8 4 C-8.99 3.34 -9.98 2.68 -11 2 C-9.54494642 1.47007308 -8.08581873 0.9513211 -6.625 0.4375 C-5.81289063 0.14746094 -5.00078125 -0.14257812 -4.1640625 -0.44140625 C-2 -1 -2 -1 0 0 Z " fill="#61A1E2" transform="translate(450,658)"/>
<path d="M0 0 C0.66 0.33 1.32 0.66 2 1 C0.71451591 2.33929505 -0.57858155 3.67128643 -1.875 5 C-2.59429687 5.7425 -3.31359375 6.485 -4.0546875 7.25 C-6 9 -6 9 -8 9 C-6.4169423 4.7257442 -3.49431596 2.73468206 0 0 Z " fill="#418EDB" transform="translate(200,191)"/>
<path d="M0 0 C6.6 0 13.2 0 20 0 C20 0.33 20 0.66 20 1 C13.4 1 6.8 1 0 1 C0 0.67 0 0.34 0 0 Z " fill="#5F99D9" transform="translate(611,863)"/>
<path d="M0 0 C0.33 1.32 0.66 2.64 1 4 C1.66 4 2.32 4 3 4 C2.67 5.32 2.34 6.64 2 8 C0.68 8.33 -0.64 8.66 -2 9 C-1.34 6.03 -0.68 3.06 0 0 Z " fill="#61A2E4" transform="translate(760,336)"/>
<path d="M0 0 C1.98 1.65 3.96 3.3 6 5 C5.67 5.99 5.34 6.98 5 8 C4.566875 7.54625 4.13375 7.0925 3.6875 6.625 C1.89201658 4.79975666 1.89201658 4.79975666 -1 3 C-0.67 2.01 -0.34 1.02 0 0 Z " fill="#5A9BE0" transform="translate(730,288)"/>
<path d="M0 0 C0.8125 1.6875 0.8125 1.6875 1 4 C-1.4375 6.75 -1.4375 6.75 -4 9 C-4 5.00095031 -2.27413033 3.19799578 0 0 Z " fill="#609EDD" transform="translate(175,217)"/>
<path d="M0 0 C1.60495567 0.11442461 3.20898119 0.24194694 4.8125 0.375 C5.70582031 0.44460937 6.59914063 0.51421875 7.51953125 0.5859375 C10 1 10 1 13 3 C11.58344207 3.0272415 10.16672955 3.04650467 8.75 3.0625 C7.56664062 3.07990234 7.56664062 3.07990234 6.359375 3.09765625 C4.09308998 3.00385306 2.1711105 2.63241063 0 2 C0 1.34 0 0.68 0 0 Z " fill="#6AA4E1" transform="translate(768,166)"/>
<path d="M0 0 C-0.66 0 -1.32 0 -2 0 C-2 0.66 -2 1.32 -2 2 C-5.3 2.33 -8.6 2.66 -12 3 C-8.61613364 -0.38386636 -4.56431325 -1.75550509 0 0 Z " fill="#6DA8E5" transform="translate(439,662)"/>
<path d="M0 0 C5.61 0 11.22 0 17 0 C17 0.33 17 0.66 17 1 C11.39 1 5.78 1 0 1 C0 0.67 0 0.34 0 0 Z " fill="#6099D9" transform="translate(429,863)"/>
<path d="M0 0 C-3.44450737 2.29633824 -5.93812283 2.54016485 -10 3 C-9.34 2.67 -8.68 2.34 -8 2 C-8 1.34 -8 0.68 -8 0 C-4.71023192 -1.09658936 -3.28696233 -0.79953138 0 0 Z " fill="#6AA6E3" transform="translate(782,855)"/>
<path d="M0 0 C0.625 1.875 0.625 1.875 1 4 C0.34 4.66 -0.32 5.32 -1 6 C-3.125 5.625 -3.125 5.625 -5 5 C-4.01 4.67 -3.02 4.34 -2 4 C-0.79117904 1.99983534 -0.79117904 1.99983534 0 0 Z " fill="#5D9FE1" transform="translate(731,755)"/>
<path d="M0 0 C0.33 0 0.66 0 1 0 C1.25 7.625 1.25 7.625 -1 11 C-2.26264601 6.70700357 -1.62950412 4.12168689 0 0 Z " fill="#599CE0" transform="translate(326,624)"/>
<path d="M0 0 C0.33 0.99 0.66 1.98 1 3 C1.65129797 4.34090759 2.31513275 5.67592331 3 7 C1.68 6.67 0.36 6.34 -1 6 C-1.33 4.35 -1.66 2.7 -2 1 C-1.34 0.67 -0.68 0.34 0 0 Z " fill="#5A9EE2" transform="translate(612,295)"/>
<path d="M0 0 C0.33 0.99 0.66 1.98 1 3 C-0.28965176 4.37562854 -1.62689293 5.70766393 -3 7 C-3.66 7 -4.32 7 -5 7 C-3.70700306 4.11562221 -2.34058637 2.12780579 0 0 Z " fill="#619EDF" transform="translate(186,203)"/>
<path d="M0 0 C4.95 0 9.9 0 15 0 C15 0.33 15 0.66 15 1 C10.05 1 5.1 1 0 1 C0 0.67 0 0.34 0 0 Z " fill="#619AD9" transform="translate(320,863)"/>
<path d="M0 0 C4.62 0 9.24 0 14 0 C14 0.33 14 0.66 14 1 C9.38 1 4.76 1 0 1 C0 0.67 0 0.34 0 0 Z " fill="#5F99D9" transform="translate(400,863)"/>
<path d="M0 0 C3.96 0 7.92 0 12 0 C12 0.33 12 0.66 12 1 C8.04 1 4.08 1 0 1 C0 0.67 0 0.34 0 0 Z " fill="#619BDA" transform="translate(672,863)"/>
<path d="M0 0 C3.96 0 7.92 0 12 0 C12 0.33 12 0.66 12 1 C8.04 1 4.08 1 0 1 C0 0.67 0 0.34 0 0 Z " fill="#609AD9" transform="translate(416,863)"/>
<path d="M0 0 C3.96 0 7.92 0 12 0 C12 0.33 12 0.66 12 1 C8.04 1 4.08 1 0 1 C0 0.67 0 0.34 0 0 Z " fill="#619ADA" transform="translate(384,863)"/>
<path d="M0 0 C3.3 0 6.6 0 10 0 C10 0.33 10 0.66 10 1 C6.7 1 3.4 1 0 1 C0 0.67 0 0.34 0 0 Z " fill="#6099D7" transform="translate(736,863)"/>
<path d="M0 0 C3.3 0 6.6 0 10 0 C10 0.33 10 0.66 10 1 C6.7 1 3.4 1 0 1 C0 0.67 0 0.34 0 0 Z " fill="#5F9ADA" transform="translate(656,863)"/>
<path d="M0 0 C2.97 0.495 2.97 0.495 6 1 C3.92446352 1.5534764 2.15634036 2 0 2 C0 1.34 0 0.68 0 0 Z " fill="#5F95D2" transform="translate(256,861)"/>
<path d="M0 0 C0.33 0 0.66 0 1 0 C1 2.97 1 5.94 1 9 C0.67 9 0.34 9 0 9 C0 6.03 0 3.06 0 0 Z " fill="#5A95D5" transform="translate(152,390)"/>
<path d="M0 0 C0.33 0 0.66 0 1 0 C1 2.64 1 5.28 1 8 C0.67 8 0.34 8 0 8 C0 5.36 0 2.72 0 0 Z " fill="#5C95D5" transform="translate(152,728)"/>
<path d="M0 0 C2.31 0 4.62 0 7 0 C7 0.33 7 0.66 7 1 C4.69 1 2.38 1 0 1 C0 0.67 0 0.34 0 0 Z " fill="#5F9AD9" transform="translate(632,863)"/>
<path d="M0 0 C2.31 0 4.62 0 7 0 C7 0.33 7 0.66 7 1 C4.69 1 2.38 1 0 1 C0 0.67 0 0.34 0 0 Z " fill="#5F97D9" transform="translate(512,863)"/>
<path d="M0 0 C2.31 0 4.62 0 7 0 C7 0.33 7 0.66 7 1 C4.69 1 2.38 1 0 1 C0 0.67 0 0.34 0 0 Z " fill="#5E9ADB" transform="translate(504,863)"/>
<path d="M0 0 C2.31 0 4.62 0 7 0 C7 0.33 7 0.66 7 1 C4.69 1 2.38 1 0 1 C0 0.67 0 0.34 0 0 Z " fill="#609ADA" transform="translate(472,863)"/>
<path d="M0 0 C2.31 0 4.62 0 7 0 C7 0.33 7 0.66 7 1 C4.69 1 2.38 1 0 1 C0 0.67 0 0.34 0 0 Z " fill="#6199D9" transform="translate(336,863)"/>
<path d="M0 0 C2.31 0 4.62 0 7 0 C7 0.33 7 0.66 7 1 C4.69 1 2.38 1 0 1 C0 0.67 0 0.34 0 0 Z " fill="#6098D8" transform="translate(312,863)"/>
<path d="M0 0 C2.31 0 4.62 0 7 0 C7 0.33 7 0.66 7 1 C4.69 1 2.38 1 0 1 C0 0.67 0 0.34 0 0 Z " fill="#619AD9" transform="translate(304,863)"/>
<path d="M0 0 C1.98 0 3.96 0 6 0 C6 0.33 6 0.66 6 1 C4.02 1.33 2.04 1.66 0 2 C0 1.34 0 0.68 0 0 Z " fill="#5C96D2" transform="translate(753,862)"/>
<path d="M0 0 C0.33 0 0.66 0 1 0 C1 2.31 1 4.62 1 7 C0.67 7 0.34 7 0 7 C0 4.69 0 2.38 0 0 Z " fill="#5B94D4" transform="translate(152,424)"/>
<path d="M0 0 C1.98 0 3.96 0 6 0 C6 0.33 6 0.66 6 1 C4.02 1 2.04 1 0 1 C0 0.67 0 0.34 0 0 Z " fill="#6099DA" transform="translate(644,863)"/>
<path d="M0 0 C0.33 0 0.66 0 1 0 C1 1.98 1 3.96 1 6 C0.67 6 0.34 6 0 6 C0 4.02 0 2.04 0 0 Z " fill="#5B94D5" transform="translate(152,713)"/>
<path d="M0 0 C0.33 0 0.66 0 1 0 C1 1.98 1 3.96 1 6 C0.67 6 0.34 6 0 6 C0 4.02 0 2.04 0 0 Z " fill="#5B95D6" transform="translate(152,697)"/>
<path d="M0 0 C0.33 0 0.66 0 1 0 C1 1.98 1 3.96 1 6 C0.67 6 0.34 6 0 6 C0 4.02 0 2.04 0 0 Z " fill="#5A94D4" transform="translate(152,689)"/>
<path d="M0 0 C0.33 0 0.66 0 1 0 C1 1.98 1 3.96 1 6 C0.67 6 0.34 6 0 6 C0 4.02 0 2.04 0 0 Z " fill="#5B95D7" transform="translate(152,609)"/>
<path d="M0 0 C0.33 0 0.66 0 1 0 C1 1.98 1 3.96 1 6 C0.67 6 0.34 6 0 6 C0 4.02 0 2.04 0 0 Z " fill="#5B95D5" transform="translate(152,593)"/>
<path d="M0 0 C0.33 0 0.66 0 1 0 C1 1.98 1 3.96 1 6 C0.67 6 0.34 6 0 6 C0 4.02 0 2.04 0 0 Z " fill="#5B95D5" transform="translate(152,585)"/>
<path d="M0 0 C0.33 0 0.66 0 1 0 C1 1.98 1 3.96 1 6 C0.67 6 0.34 6 0 6 C0 4.02 0 2.04 0 0 Z " fill="#5C95D6" transform="translate(152,577)"/>
<path d="M0 0 C0.33 0 0.66 0 1 0 C1 1.98 1 3.96 1 6 C0.67 6 0.34 6 0 6 C0 4.02 0 2.04 0 0 Z " fill="#5C96D5" transform="translate(152,569)"/>
<path d="M0 0 C0.33 0 0.66 0 1 0 C1 1.98 1 3.96 1 6 C0.67 6 0.34 6 0 6 C0 4.02 0 2.04 0 0 Z " fill="#5B95D7" transform="translate(152,529)"/>
<path d="M0 0 C0.33 0 0.66 0 1 0 C1 1.98 1 3.96 1 6 C0.67 6 0.34 6 0 6 C0 4.02 0 2.04 0 0 Z " fill="#5A94D4" transform="translate(152,377)"/>
<path d="M0 0 C0.33 0 0.66 0 1 0 C1 1.98 1 3.96 1 6 C0.67 6 0.34 6 0 6 C0 4.02 0 2.04 0 0 Z " fill="#5A94D5" transform="translate(152,337)"/>
<path d="M0 0 C0.33 1.32 0.66 2.64 1 4 C0.34 3.01 -0.32 2.02 -1 1 C-0.67 0.67 -0.34 0.34 0 0 Z " fill="#6097D4" transform="translate(153,752)"/>
<path d="M0 0 C0.33 0 0.66 0 1 0 C1 1.65 1 3.3 1 5 C0.67 5 0.34 5 0 5 C0 3.35 0 1.7 0 0 Z " fill="#5C95D5" transform="translate(152,722)"/>
<path d="M0 0 C0.33 0 0.66 0 1 0 C1 1.65 1 3.3 1 5 C0.67 5 0.34 5 0 5 C0 3.35 0 1.7 0 0 Z " fill="#64A2E3" transform="translate(311,689)"/>
<path d="M0 0 C0.33 0 0.66 0 1 0 C1 1.65 1 3.3 1 5 C0.67 5 0.34 5 0 5 C0 3.35 0 1.7 0 0 Z " fill="#5A94D6" transform="translate(152,641)"/>
<path d="M0 0 C0.33 0 0.66 0 1 0 C1 1.65 1 3.3 1 5 C0.67 5 0.34 5 0 5 C0 3.35 0 1.7 0 0 Z " fill="#5B95D5" transform="translate(152,538)"/>
<path d="M0 0 C0.33 0 0.66 0 1 0 C1 1.65 1 3.3 1 5 C0.67 5 0.34 5 0 5 C0 3.35 0 1.7 0 0 Z " fill="#5C95D7" transform="translate(152,458)"/>
<path d="M0 0 C0.99 0 1.98 0 3 0 C2.67 0.66 2.34 1.32 2 2 C1.34 2 0.68 2 0 2 C0 1.34 0 0.68 0 0 Z " fill="#5F9EE3" transform="translate(688,253)"/>
<path d="M0 0 C4 1 4 1 4 1 Z " fill="#629BDB" transform="translate(499,863)"/>
<path d="M0 0 C4 1 4 1 4 1 Z " fill="#6199D9" transform="translate(280,863)"/>
<path d="M0 0 C0.66 0.66 1.32 1.32 2 2 C1.01 1.67 0.02 1.34 -1 1 C-0.67 0.67 -0.34 0.34 0 0 Z " fill="#5D94D0" transform="translate(209,842)"/>
<path d="M0 0 C1 4 1 4 1 4 Z " fill="#6198D5" transform="translate(152,744)"/>
<path d="M0 0 C1 4 1 4 1 4 Z " fill="#5B95D5" transform="translate(152,512)"/>
<path d="M0 0 C1 4 1 4 1 4 Z " fill="#5C97D8" transform="translate(152,481)"/>
<path d="M0 0 C1 4 1 4 1 4 Z " fill="#5C96D7" transform="translate(152,464)"/>
<path d="M0 0 C1 4 1 4 1 4 Z " fill="#5C95D6" transform="translate(152,433)"/>
<path d="M0 0 C1 4 1 4 1 4 Z " fill="#5C97D6" transform="translate(152,409)"/>
<path d="M0 0 C1 4 1 4 1 4 Z " fill="#5B92D3" transform="translate(152,290)"/>
<path d="M0 0 C3 1 3 1 3 1 Z " fill="#629BDA" transform="translate(668,863)"/>
<path d="M0 0 C3 1 3 1 3 1 Z " fill="#5F9BDC" transform="translate(380,863)"/>
<path d="M0 0 C3 1 3 1 3 1 Z " fill="#619ADA" transform="translate(348,863)"/>
<path d="M0 0 C3 1 3 1 3 1 Z " fill="#5E99DA" transform="translate(344,863)"/>
<path d="M0 0 C3 1 3 1 3 1 Z " fill="#6098D8" transform="translate(296,863)"/>
<path d="M0 0 C3 1 3 1 3 1 Z " fill="#639AD9" transform="translate(292,863)"/>
<path d="M0 0 C3 1 3 1 3 1 Z " fill="#5B95D1" transform="translate(761,861)"/>
<path d="M0 0 C0.33 0.66 0.66 1.32 1 2 C0.34 1.67 -0.32 1.34 -1 1 C-0.67 0.67 -0.34 0.34 0 0 Z " fill="#6096D3" transform="translate(193,830)"/>
<path d="M0 0 C0.66 0.66 1.32 1.32 2 2 C1.34 2 0.68 2 0 2 C0 1.34 0 0.68 0 0 Z " fill="#5D93D1" transform="translate(177,812)"/>
<path d="" fill="#5C96D6" transform="translate(0,0)"/>
<path d="" fill="#5D96D7" transform="translate(0,0)"/>
<path d="" fill="#5C95D5" transform="translate(0,0)"/>
<path d="M0 0 C3 1 3 1 3 1 Z " fill="#659FDF" transform="translate(396,672)"/>
<path d="" fill="#5B94D5" transform="translate(0,0)"/>
<path d="" fill="#609FE3" transform="translate(0,0)"/>
<path d="" fill="#619EE0" transform="translate(0,0)"/>
<path d="" fill="#5C95D5" transform="translate(0,0)"/>
<path d="" fill="#5C96D6" transform="translate(0,0)"/>
<path d="" fill="#5C95D6" transform="translate(0,0)"/>
<path d="" fill="#5C95D5" transform="translate(0,0)"/>
<path d="" fill="#5C95D8" transform="translate(0,0)"/>
<path d="" fill="#5A95D8" transform="translate(0,0)"/>
<path d="" fill="#5D94D6" transform="translate(0,0)"/>
<path d="" fill="#5E97D8" transform="translate(0,0)"/>
<path d="" fill="#5B96D7" transform="translate(0,0)"/>
<path d="M0 0 C3 1 3 1 3 1 Z " fill="#63A1E1" transform="translate(708,392)"/>
<path d="" fill="#5D95D5" transform="translate(0,0)"/>
<path d="" fill="#5A95D6" transform="translate(0,0)"/>
<path d="" fill="#5C94D5" transform="translate(0,0)"/>
<path d="" fill="#5D93D3" transform="translate(0,0)"/>
<path d="" fill="#5C94D3" transform="translate(0,0)"/>
<path d="" fill="#5993D5" transform="translate(0,0)"/>
<path d="" fill="#5B93D4" transform="translate(0,0)"/>
<path d="" fill="#5C94D5" transform="translate(0,0)"/>
<path d="" fill="#5A92D3" transform="translate(0,0)"/>
<path d="" fill="#5B93D1" transform="translate(0,0)"/>
<path d="M0 0 C2 1 2 1 2 1 Z " fill="#6399D8" transform="translate(685,863)"/>
<path d="M0 0 C2 1 2 1 2 1 Z " fill="#609ADA" transform="translate(640,863)"/>
<path d="M0 0 C2 1 2 1 2 1 Z " fill="#5F98DA" transform="translate(608,863)"/>
<path d="M0 0 C2 1 2 1 2 1 Z " fill="#5F99DA" transform="translate(576,863)"/>
<path d="M0 0 C2 1 2 1 2 1 Z " fill="#5F9ADA" transform="translate(496,863)"/>
<path d="M0 0 C2 1 2 1 2 1 Z " fill="#5E9ADA" transform="translate(480,863)"/>
<path d="M0 0 C2 1 2 1 2 1 Z " fill="#629BDA" transform="translate(397,863)"/>
<path d="M0 0 C2 1 2 1 2 1 Z " fill="#5E9ADD" transform="translate(376,863)"/>
<path d="M0 0 C2 1 2 1 2 1 Z " fill="#609AD9" transform="translate(288,863)"/>
<path d="M0 0 C2 1 2 1 2 1 Z " fill="#629BD9" transform="translate(285,863)"/>
<path d="M0 0 C2 1 2 1 2 1 Z " fill="#5C94D1" transform="translate(224,851)"/>
<path d="" fill="#5B92D0" transform="translate(0,0)"/>
<path d="" fill="#5C94D0" transform="translate(0,0)"/>
<path d="" fill="#5B93D2" transform="translate(0,0)"/>
<path d="" fill="#5D97D2" transform="translate(0,0)"/>
<path d="M0 0 C2 1 2 1 2 1 Z " fill="#619EDF" transform="translate(307,760)"/>
<path d="" fill="#61A0E3" transform="translate(0,0)"/>
<path d="" fill="#5F97D5" transform="translate(0,0)"/>
<path d="" fill="#5C96D6" transform="translate(0,0)"/>
<path d="M0 0 C2 1 2 1 2 1 Z " fill="#69A6E2" transform="translate(321,696)"/>
<path d="M0 0 C2 1 2 1 2 1 Z " fill="#64A1E3" transform="translate(360,683)"/>
<path d="" fill="#5995D6" transform="translate(0,0)"/>
<path d="M0 0 C2 1 2 1 2 1 Z " fill="#64A0E0" transform="translate(417,665)"/>
<path d="" fill="#5894D6" transform="translate(0,0)"/>
<path d="" fill="#5B95D6" transform="translate(0,0)"/>
<path d="" fill="#5B96D5" transform="translate(0,0)"/>
<path d="" fill="#5F9DE1" transform="translate(0,0)"/>
<path d="" fill="#5795D6" transform="translate(0,0)"/>
<path d="" fill="#5B94D5" transform="translate(0,0)"/>
<path d="" fill="#609EE2" transform="translate(0,0)"/>
<path d="" fill="#5B97D7" transform="translate(0,0)"/>
<path d="M0 0 C2 1 2 1 2 1 Z " fill="#5F9CDB" transform="translate(499,601)"/>
<path d="" fill="#5F9DDB" transform="translate(0,0)"/>
<path d="" fill="#5A94D6" transform="translate(0,0)"/>
<path d="" fill="#5E98D7" transform="translate(0,0)"/>
<path d="M0 0 C2 1 2 1 2 1 Z " fill="#5E9DDF" transform="translate(588,513)"/>
<path d="" fill="#5D98D8" transform="translate(0,0)"/>
<path d="" fill="#5996D6" transform="translate(0,0)"/>
<path d="" fill="#5B96D6" transform="translate(0,0)"/>
<path d="" fill="#5C95D6" transform="translate(0,0)"/>
<path d="" fill="#5D95D6" transform="translate(0,0)"/>
<path d="" fill="#66A3E3" transform="translate(0,0)"/>
<path d="" fill="#63A0E3" transform="translate(0,0)"/>
<path d="" fill="#5A94D4" transform="translate(0,0)"/>
<path d="" fill="#5B95D5" transform="translate(0,0)"/>
<path d="" fill="#5C95D5" transform="translate(0,0)"/>
<path d="" fill="#5C95D4" transform="translate(0,0)"/>
<path d="" fill="#5D94D3" transform="translate(0,0)"/>
<path d="" fill="#5E94D2" transform="translate(0,0)"/>
<path d="" fill="#5C94D1" transform="translate(0,0)"/>
<path d="M0 0 C2 1 2 1 2 1 Z " fill="#60A1E5" transform="translate(696,261)"/>
<path d="" fill="#5E95CF" transform="translate(0,0)"/>
<path d="" fill="#61A1E3" transform="translate(0,0)"/>
<path d="" fill="#6194D0" transform="translate(0,0)"/>
<path d="" fill="#5C93D1" transform="translate(0,0)"/>
<path d="" fill="#5D97D3" transform="translate(0,0)"/>
<path d="" fill="#609AD9" transform="translate(0,0)"/>
<path d="" fill="#5F95D1" transform="translate(0,0)"/>
<path d="" fill="#6196D3" transform="translate(0,0)"/>
<path d="" fill="#5892D1" transform="translate(0,0)"/>
<path d="" fill="#5F98D5" transform="translate(0,0)"/>
<path d="" fill="#5E96D2" transform="translate(0,0)"/>
<path d="" fill="#5C93CE" transform="translate(0,0)"/>
<path d="" fill="#5E94CE" transform="translate(0,0)"/>
<path d="" fill="#5B92D2" transform="translate(0,0)"/>
<path d="" fill="#5F95D0" transform="translate(0,0)"/>
<path d="" fill="#5C93D1" transform="translate(0,0)"/>
<path d="" fill="#5590D0" transform="translate(0,0)"/>
<path d="" fill="#5D95D3" transform="translate(0,0)"/>
<path d="" fill="#5E95D4" transform="translate(0,0)"/>
<path d="" fill="#5892D2" transform="translate(0,0)"/>
<path d="" fill="#5992D2" transform="translate(0,0)"/>
<path d="" fill="#5F97D4" transform="translate(0,0)"/>
<path d="" fill="#6298D5" transform="translate(0,0)"/>
<path d="" fill="#5E95D1" transform="translate(0,0)"/>
<path d="" fill="#5C93CF" transform="translate(0,0)"/>
<path d="" fill="#6097D4" transform="translate(0,0)"/>
<path d="" fill="#6097D5" transform="translate(0,0)"/>
<path d="" fill="#5F93D3" transform="translate(0,0)"/>
<path d="" fill="#568FCE" transform="translate(0,0)"/>
<path d="" fill="#5A93D0" transform="translate(0,0)"/>
<path d="" fill="#5A94D1" transform="translate(0,0)"/>
<path d="" fill="#5C94D0" transform="translate(0,0)"/>
<path d="" fill="#5E94CF" transform="translate(0,0)"/>
<path d="" fill="#6195D1" transform="translate(0,0)"/>
<path d="" fill="#5E96D0" transform="translate(0,0)"/>
<path d="" fill="#63A0E0" transform="translate(0,0)"/>
<path d="" fill="#66A5E7" transform="translate(0,0)"/>
<path d="" fill="#68A6E8" transform="translate(0,0)"/>
<path d="" fill="#64A5E5" transform="translate(0,0)"/>
<path d="" fill="#66A6E7" transform="translate(0,0)"/>
<path d="" fill="#5C94D2" transform="translate(0,0)"/>
<path d="" fill="#63A1E3" transform="translate(0,0)"/>
<path d="" fill="#61A1E1" transform="translate(0,0)"/>
<path d="" fill="#62A1E0" transform="translate(0,0)"/>
<path d="" fill="#5F99D5" transform="translate(0,0)"/>
<path d="" fill="#61A0E0" transform="translate(0,0)"/>
<path d="" fill="#5F9FE4" transform="translate(0,0)"/>
<path d="" fill="#5F9CE1" transform="translate(0,0)"/>
<path d="" fill="#64A1E2" transform="translate(0,0)"/>
<path d="" fill="#62A1E3" transform="translate(0,0)"/>
<path d="" fill="#63A0E4" transform="translate(0,0)"/>
<path d="" fill="#65A1E2" transform="translate(0,0)"/>
<path d="" fill="#65A2E4" transform="translate(0,0)"/>
<path d="" fill="#62A0E3" transform="translate(0,0)"/>
<path d="" fill="#67A2E5" transform="translate(0,0)"/>
<path d="" fill="#5E95D6" transform="translate(0,0)"/>
<path d="" fill="#5E9EE0" transform="translate(0,0)"/>
<path d="" fill="#64A2E5" transform="translate(0,0)"/>
<path d="" fill="#5D98D8" transform="translate(0,0)"/>
<path d="" fill="#649FE2" transform="translate(0,0)"/>
<path d="" fill="#619BDD" transform="translate(0,0)"/>
<path d="" fill="#61A0E2" transform="translate(0,0)"/>
<path d="" fill="#649FDF" transform="translate(0,0)"/>
<path d="" fill="#5B9DE1" transform="translate(0,0)"/>
<path d="" fill="#629EDD" transform="translate(0,0)"/>
<path d="" fill="#599BE0" transform="translate(0,0)"/>
<path d="" fill="#5C97D6" transform="translate(0,0)"/>
<path d="" fill="#5F9DDB" transform="translate(0,0)"/>
<path d="" fill="#5B95D4" transform="translate(0,0)"/>
<path d="" fill="#5A96D6" transform="translate(0,0)"/>
<path d="" fill="#5C95D6" transform="translate(0,0)"/>
<path d="" fill="#5F9CDC" transform="translate(0,0)"/>
<path d="" fill="#609EE0" transform="translate(0,0)"/>
<path d="" fill="#609CDD" transform="translate(0,0)"/>
<path d="" fill="#5F9DE0" transform="translate(0,0)"/>
<path d="" fill="#609FE1" transform="translate(0,0)"/>
<path d="" fill="#599BDE" transform="translate(0,0)"/>
<path d="" fill="#5F9EE2" transform="translate(0,0)"/>
<path d="" fill="#609EDF" transform="translate(0,0)"/>
<path d="" fill="#609FDF" transform="translate(0,0)"/>
<path d="" fill="#5F9EDF" transform="translate(0,0)"/>
<path d="" fill="#5D9DDD" transform="translate(0,0)"/>
<path d="" fill="#5D9BDE" transform="translate(0,0)"/>
<path d="" fill="#5A96D8" transform="translate(0,0)"/>
<path d="" fill="#5B9DDE" transform="translate(0,0)"/>
<path d="" fill="#639EE1" transform="translate(0,0)"/>
<path d="" fill="#5E9AD9" transform="translate(0,0)"/>
<path d="" fill="#5D9CDF" transform="translate(0,0)"/>
<path d="" fill="#5C97D7" transform="translate(0,0)"/>
<path d="" fill="#5C97D6" transform="translate(0,0)"/>
<path d="" fill="#619EDF" transform="translate(0,0)"/>
<path d="" fill="#5F9ADC" transform="translate(0,0)"/>
<path d="" fill="#5E9ADE" transform="translate(0,0)"/>
<path d="" fill="#60A0E2" transform="translate(0,0)"/>
<path d="" fill="#5E9EDF" transform="translate(0,0)"/>
<path d="" fill="#639FE0" transform="translate(0,0)"/>
<path d="" fill="#609FDD" transform="translate(0,0)"/>
<path d="" fill="#60A0E0" transform="translate(0,0)"/>
<path d="" fill="#609DDF" transform="translate(0,0)"/>
<path d="" fill="#609EE2" transform="translate(0,0)"/>
<path d="" fill="#5D9BDD" transform="translate(0,0)"/>
<path d="" fill="#5F9CDD" transform="translate(0,0)"/>
<path d="" fill="#5D9FE1" transform="translate(0,0)"/>
<path d="" fill="#5DA0E2" transform="translate(0,0)"/>
<path d="" fill="#5C97D9" transform="translate(0,0)"/>
<path d="" fill="#5F9FE3" transform="translate(0,0)"/>
<path d="" fill="#6EA7E0" transform="translate(0,0)"/>
<path d="" fill="#66A2E4" transform="translate(0,0)"/>
<path d="" fill="#62A2E6" transform="translate(0,0)"/>
<path d="" fill="#5994D6" transform="translate(0,0)"/>
<path d="" fill="#629FE2" transform="translate(0,0)"/>
<path d="" fill="#5E9FE4" transform="translate(0,0)"/>
<path d="" fill="#63A1E3" transform="translate(0,0)"/>
<path d="" fill="#5FA3E4" transform="translate(0,0)"/>
<path d="" fill="#629FE2" transform="translate(0,0)"/>
<path d="" fill="#63A1E3" transform="translate(0,0)"/>
<path d="" fill="#62A2E6" transform="translate(0,0)"/>
<path d="" fill="#629FDF" transform="translate(0,0)"/>
<path d="" fill="#629FE2" transform="translate(0,0)"/>
<path d="" fill="#60A0E2" transform="translate(0,0)"/>
<path d="" fill="#61A0E2" transform="translate(0,0)"/>
<path d="" fill="#5C9CE2" transform="translate(0,0)"/>
<path d="" fill="#5E9CDE" transform="translate(0,0)"/>
<path d="" fill="#61A1E2" transform="translate(0,0)"/>
<path d="" fill="#5C97D5" transform="translate(0,0)"/>
<path d="" fill="#5D9DE1" transform="translate(0,0)"/>
<path d="" fill="#5D9FE0" transform="translate(0,0)"/>
<path d="" fill="#609EE1" transform="translate(0,0)"/>
<path d="" fill="#5994D6" transform="translate(0,0)"/>
<path d="" fill="#65A3E6" transform="translate(0,0)"/>
<path d="" fill="#5F9EE2" transform="translate(0,0)"/>
<path d="" fill="#5FA1E4" transform="translate(0,0)"/>
<path d="" fill="#5E9DE2" transform="translate(0,0)"/>
<path d="" fill="#5F9EE2" transform="translate(0,0)"/>
<path d="" fill="#609FE2" transform="translate(0,0)"/>
<path d="" fill="#5D9EE2" transform="translate(0,0)"/>
<path d="" fill="#5C97D5" transform="translate(0,0)"/>
<path d="" fill="#5F9EE3" transform="translate(0,0)"/>
<path d="" fill="#62A2E4" transform="translate(0,0)"/>
<path d="" fill="#5C9EE4" transform="translate(0,0)"/>
<path d="" fill="#60A2E6" transform="translate(0,0)"/>
<path d="" fill="#5993D4" transform="translate(0,0)"/>
<path d="" fill="#5FA2E7" transform="translate(0,0)"/>
<path d="" fill="#5FA0E5" transform="translate(0,0)"/>
<path d="" fill="#62A2E6" transform="translate(0,0)"/>
<path d="" fill="#60A0E4" transform="translate(0,0)"/>
<path d="" fill="#61A1E5" transform="translate(0,0)"/>
<path d="" fill="#5FA1E4" transform="translate(0,0)"/>
<path d="" fill="#5FA1E5" transform="translate(0,0)"/>
<path d="" fill="#60A2E3" transform="translate(0,0)"/>
<path d="" fill="#5D95D3" transform="translate(0,0)"/>
<path d="" fill="#5E9EE4" transform="translate(0,0)"/>
<path d="" fill="#62A2E5" transform="translate(0,0)"/>
<path d="" fill="#5EA0E2" transform="translate(0,0)"/>
<path d="" fill="#60A2E4" transform="translate(0,0)"/>
<path d="" fill="#5C93D0" transform="translate(0,0)"/>
<path d="" fill="#5FA3E5" transform="translate(0,0)"/>
<path d="" fill="#5F96D0" transform="translate(0,0)"/>
<path d="" fill="#61A2E6" transform="translate(0,0)"/>
<path d="" fill="#62A1E7" transform="translate(0,0)"/>
<path d="" fill="#6095CD" transform="translate(0,0)"/>
<path d="" fill="#65A2E2" transform="translate(0,0)"/>
<path d="" fill="#5E9BE1" transform="translate(0,0)"/>
<path d="" fill="#60A2E4" transform="translate(0,0)"/>
<path d="" fill="#5D94CD" transform="translate(0,0)"/>
<path d="" fill="#588ECA" transform="translate(0,0)"/>
<path d="" fill="#5E9FE4" transform="translate(0,0)"/>
<path d="" fill="#5F9EE4" transform="translate(0,0)"/>
<path d="" fill="#5D95D1" transform="translate(0,0)"/>
<path d="" fill="#5F95CE" transform="translate(0,0)"/>
<path d="" fill="#5F93CC" transform="translate(0,0)"/>
<path d="" fill="#5E92CB" transform="translate(0,0)"/>
<path d="" fill="#6094CD" transform="translate(0,0)"/>
<path d="" fill="#6196CD" transform="translate(0,0)"/>
<path d="" fill="#5E95D1" transform="translate(0,0)"/>
<path d="" fill="#5E94CD" transform="translate(0,0)"/>
<path d="" fill="#5B92CE" transform="translate(0,0)"/>
<path d="" fill="#5B92D0" transform="translate(0,0)"/>
<path d="" fill="#5791CF" transform="translate(0,0)"/>
<path d="" fill="#5D95CF" transform="translate(0,0)"/>
<path d="" fill="#5E97D0" transform="translate(0,0)"/>
<path d="" fill="#5C96D2" transform="translate(0,0)"/>
<path d="" fill="#5B93D0" transform="translate(0,0)"/>
<path d="" fill="#5E96D3" transform="translate(0,0)"/>
<path d="" fill="#6196D0" transform="translate(0,0)"/>
<path d="" fill="#5D94CF" transform="translate(0,0)"/>
<path d="" fill="#5E93CF" transform="translate(0,0)"/>
<path d="" fill="#5E94CF" transform="translate(0,0)"/>
<path d="" fill="#5993D1" transform="translate(0,0)"/>
<path d="" fill="#5B91D0" transform="translate(0,0)"/>
<path d="" fill="#5D95D0" transform="translate(0,0)"/>
<path d="" fill="#5F96D1" transform="translate(0,0)"/>
<path d="" fill="#6297D3" transform="translate(0,0)"/>
</svg>
